<svg width="24" height="24" viewBox="0 0 24 24" fill="none" xmlns="http://www.w3.org/2000/svg">
<g id="Snooze">
<path id="Vector" opacity="0.35" d="M12 22C17.5228 22 22 17.5228 22 12C22 6.47715 17.5228 2 12 2C6.47715 2 2 6.47715 2 12C2 17.5228 6.47715 22 12 22Z" fill="#A5ABB3"/>
<path id="Vector_2" d="M21.1231 7.92111C21.3721 7.82711 21.5871 7.65011 21.7001 7.37711C22.2871 5.96811 22.0081 4.28311 20.8621 3.13711C19.7161 1.99111 18.0311 1.71111 16.6221 2.29811C16.3501 2.41211 16.1721 2.62711 16.0781 2.87511C18.3191 3.87911 20.1201 5.68011 21.1231 7.92111Z" fill="#A5ABB3"/>
<path id="Vector_3" d="M2.87582 7.92134C3.87882 5.68034 5.67982 3.87934 7.92082 2.87634C7.82682 2.62734 7.64982 2.41234 7.37682 2.29834C5.96782 1.71134 4.28282 1.99034 3.13682 3.13734C1.99082 4.28434 1.71082 5.96834 2.29882 7.37734C2.41182 7.64934 2.62682 7.82734 2.87582 7.92134Z" fill="#A5ABB3"/>
<path id="Vector_4" d="M12.2812 13.689V13.655C12.2812 13.453 12.3283 13.253 12.4183 13.072L15.0402 7.792H13.4062C12.9112 7.792 12.5103 7.391 12.5103 6.896C12.5093 6.401 12.9112 6 13.4062 6H16.0553C16.7793 6 17.3663 6.587 17.3663 7.311C17.3663 7.513 17.3192 7.712 17.2302 7.892L14.6202 13.169H16.4702C16.9652 13.169 17.3663 13.57 17.3663 14.065V14.103C17.3663 14.598 16.9652 14.999 16.4702 14.999H13.5933C12.8683 15 12.2812 14.413 12.2812 13.689Z" fill="#A5ABB3"/>
<path id="Vector_5" d="M7.14062 16.98V16.954C7.14062 16.797 7.17662 16.641 7.24662 16.501L9.28562 12.395H8.01463C7.62963 12.395 7.31763 12.083 7.31763 11.698C7.31763 11.312 7.62963 11 8.01463 11H10.0746C10.6376 11 11.0946 11.457 11.0946 12.02C11.0946 12.177 11.0586 12.332 10.9886 12.472L8.95863 16.576H10.3976C10.7826 16.576 11.0946 16.888 11.0946 17.273V17.303C11.0946 17.688 10.7826 18 10.3976 18H8.15962C7.59662 18 7.14062 17.543 7.14062 16.98Z" fill="#A5ABB3"/>
</g>
</svg>
